<svg xmlns="http://www.w3.org/2000/svg" viewBox="0 0 960 520">
  <defs>
    <linearGradient id="a" x1="0" y1="0" x2="1" y2="1">
      <stop offset="0%" stop-color="#38bdf8" />
      <stop offset="100%" stop-color="#22c55e" />
    </linearGradient>
  </defs>
  <rect width="960" height="520" rx="40" fill="#f8fafc" />
  <rect x="68" y="72" width="380" height="338" rx="30" fill="#fff" stroke="#cbd5e1" stroke-width="8" />
  <rect x="510" y="112" width="360" height="260" rx="20" fill="url(#a)" opacity="0.92" />
  <circle cx="700" cy="250" r="92" fill="#ffffff" opacity="0.9" />
  <path d="M692 200c18 20 20 46 4 66-16 20-44 26-64 12" fill="none" stroke="#2563eb" stroke-width="18" stroke-linecap="round" />
  <path d="M692 200c-18 20-20 46-4 66 16 20 44 26 64 12" fill="none" stroke="#16a34a" stroke-width="18" stroke-linecap="round" />
  <circle cx="190" cy="190" r="12" fill="#38bdf8" />
  <circle cx="255" cy="215" r="10" fill="#22c55e" />
  <circle cx="170" cy="270" r="10" fill="#0f172a" opacity="0.14" />
  <path d="M150 320h180" stroke="#94a3b8" stroke-width="12" stroke-linecap="round" opacity="0.35" />
  <path d="M170 340h130" stroke="#94a3b8" stroke-width="10" stroke-linecap="round" opacity="0.25" />
  <path d="M120 130h260" stroke="#0f172a" stroke-width="8" stroke-linecap="round" opacity="0.18" />
  <path d="M120 160h220" stroke="#0f172a" stroke-width="8" stroke-linecap="round" opacity="0.18" />
</svg>
